#!OML:ASF F:\VICON\USERDATA\INSTALL\rory3\rory3.ASF
:FULLY-SPECIFIED
:DEGREES
213
root -3.2724 17.8139 -9.50829 113.609 85.6685 113.024
lowerback 13.4755 -0.255307 -4.28325
upperback 1.98732 -0.865616 0.0237419
thorax -5.39109 -0.303701 2.59673
lowerneck -14.7087 -3.75559 -10.7491
upperneck 40.7107 -1.716 3.889
head 17.7697 -1.24161 3.5991
rclavicle 9.14409e-015 -4.37326e-015
rhumerus -31.0608 -10.1675 -79.7592
rradius 37.5548
rwrist 4.48375
rhand -13.8425 9.7788
rfingers 7.12502
rthumb 12.281 -19.8406
lclavicle 9.14409e-015 -4.37326e-015
lhumerus -27.1222 1.14124 78.6709
lradius 37.5755
lwrist -1.28965
lhand -21.8158 25.9889
lfingers 7.12502
lthumb 4.58666 55.9192
rfemur -26.784 -4.47055 16.3793
rtibia 29.4597
rfoot -4.54438 -9.1474
rtoes 10.6278
lfemur 4.19696 3.84489 -29.632
ltibia 11.6439
lfoot -9.957 -4.16131
ltoes 0.0558572
214
root -3.17667 17.8368 -9.51009 116.9 85.5304 116.239
lowerback 13.4461 -0.310596 -4.30833
upperback 2.01658 -0.935972 0.0795166
thorax -5.33705 -0.338682 2.68139
lowerneck -14.6856 -3.78393 -10.8107
upperneck 40.6676 -1.7522 3.90964
head 17.7452 -1.26199 3.61075
rclavicle -2.23633e-015 -2.78299e-015
rhumerus -31.019 -10.4431 -79.6791
rradius 37.295
rwrist 4.89463
rhand -13.7397 9.97255
rfingers 7.12502
rthumb 12.3801 -19.6409
lclavicle -2.23633e-015 -2.78299e-015
lhumerus -26.8823 0.605947 78.9169
lradius 37.7238
lwrist -1.07108
lhand -22.0734 26.0849
lfingers 7.12502
lthumb 4.33793 56.0205
rfemur -26.9243 -4.57449 16.4921
rtibia 27.6145
rfoot -3.6283 -9.20442
rtoes 13.5832
lfemur 5.26999 3.19495 -29.606
ltibia 10.1027
lfoot -8.95339 -4.39383
ltoes 7.62664
215
root -3.07934 17.8476 -9.51254 119.848 85.3529 119.083
lowerback 13.4144 -0.362474 -4.33758
upperback 2.00174 -1.00739 0.0913528
thorax -5.32899 -0.37325 2.72254
lowerneck -14.5241 -3.77542 -10.7203
upperneck 40.5813 -1.76658 3.85058
head 17.6505 -1.25801 3.55919
rclavicle 1.8487e-014 3.97569e-015
rhumerus -31.0853 -10.4569 -79.608
rradius 37.1096
rwrist 5.08325
rhand -13.6136 9.77278
rfingers 7.12502
rthumb 12.5016 -19.8333
lclavicle 1.8487e-014 3.97569e-015
lhumerus -26.7141 0.144626 79.0986
lradius 37.861
lwrist -0.970964
lhand -22.2704 26.2477
lfingers 7.12502
lthumb 4.1477 56.1871
rfemur -27.0591 -4.85396 16.631
rtibia 25.8972
rfoot -3.08076 -9.15448
rtoes 14.33
lfemur 6.2179 2.92234 -29.6283
ltibia 8.71977
lfoot -8.2687 -4.52711
ltoes 11.2881
216
root -2.97857 17.8425 -9.5163 121.91 85.1678 120.994
lowerback 13.3082 -0.382319 -4.28392
upperback 1.97043 -1.02682 0.0244324
thorax -5.30434 -0.385033 2.62344
lowerneck -14.3341 -3.79932 -10.634
upperneck 40.5266 -1.89878 3.96261
head 17.5804 -1.27883 3.56886
rclavicle 4.02539e-015 0
rhumerus -31.2912 -10.6 -79.6092
rradius 37.0223
rwrist 5.10319
rhand -13.6976 9.4963
rfingers 7.12502
rthumb 12.4207 -20.1147
lclavicle 4.02539e-015 0
lhumerus -26.521 -0.25529 79.2133
lradius 37.9264
lwrist -1.09704
lhand -22.2436 26.3043
lfingers 7.12502
lthumb 4.17355 56.2431
rfemur -27.1742 -4.82596 16.7013
rtibia 24.2638
rfoot -3.00576 -9.52636
rtoes 12.7602
lfemur 6.91443 2.70093 -29.7553
ltibia 7.6818
lfoot -7.99157 -4.17761
ltoes 9.59554
217
root -2.8798 17.8334 -9.51696 124.546 84.9139 123.512
lowerback 13.2294 -0.436394 -4.36423
upperback 1.97029 -1.10443 0.0544501
thorax -5.2528 -0.422787 2.71246
lowerneck -14.24 -3.85153 -10.6522
upperneck 40.5089 -1.97461 3.95052
head 17.5553 -1.3119 3.55155
rclavicle -7.25564e-015 -1.66979e-014
rhumerus -31.4255 -10.865 -79.4752
rradius 36.9023
rwrist 5.26325
rhand -13.6819 9.60028
rfingers 7.12502
rthumb 12.4359 -20.0098
lclavicle -7.25564e-015 -1.66979e-014
lhumerus -26.2962 -0.531426 79.4492
lradius 37.9584
lwrist -1.18287
lhand -21.8552 25.9422
lfingers 7.12502
lthumb 4.54857 55.8734
rfemur -27.2719 -4.32207 16.6036
rtibia 22.8709
rfoot -3.48299 -10.8388
rtoes 10.2508
lfemur 7.57138 2.39504 -29.8888
ltibia 6.79449
lfoot -7.74665 -3.76271
ltoes 6.78957
218
root -2.78388 17.8343 -9.51595 126.801 84.5595 125.66
lowerback 13.191 -0.482288 -4.56485
upperback 1.98541 -1.18869 0.0833427
thorax -5.20394 -0.461376 2.86981
lowerneck -14.237 -3.94163 -10.7279
upperneck 40.5475 -2.07345 3.93581
head 17.592 -1.36507 3.54224
rclavicle 1.47598e-014 -6.36111e-015
rhumerus -31.5121 -11.0006 -79.3356
rradius 36.803
rwrist 5.137
rhand -13.6138 9.72396
rfingers 7.12502
rthumb 12.5015 -19.8821
lclavicle 1.47598e-014 -6.36111e-015
lhumerus -26.0518 -1.08115 79.7627
lradius 37.99
lwrist -0.943671
lhand -21.8139 25.8021
lfingers 7.12502
lthumb 4.5885 55.7324
rfemur -27.4144 -4.18741 16.4954
rtibia 21.7563
rfoot -4.4465 -12.2153
rtoes 8.22194
lfemur 8.25977 2.04563 -30.0933
ltibia 5.86445
lfoot -7.38538 -3.5046
ltoes 4.39608
219
root -2.68856 17.8366 -9.51529 128.454 84.3064 127.144
lowerback 13.1299 -0.532254 -4.59694
upperback 1.95475 -1.26006 0.0464712
thorax -5.19693 -0.496209 2.86032
lowerneck -14.2805 -3.99703 -10.8067
upperneck 40.6514 -2.14978 4.02681
head 17.6765 -1.39609 3.59098
rclavicle -1.58531e-014 -1.19271e-014
rhumerus -31.6773 -11.0214 -79.3539
rradius 36.7609
rwrist 4.96929
rhand -13.3457 9.79496
rfingers 7.12502
rthumb 12.76 -19.7951
lclavicle -1.58531e-014 -1.19271e-014
lhumerus -25.8466 -1.64561 79.9079
lradius 37.9836
lwrist -0.792927
lhand -21.8852 25.893
lfingers 7.12502
lthumb 4.51962 55.8247
rfemur -27.6641 -4.32583 16.5722
rtibia 20.934
rfoot -5.69652 -13.3012
rtoes 5.38106
lfemur 8.9818 1.78234 -30.2359
ltibia 4.71496
lfoot -6.89994 -3.39423
ltoes 2.80922
220
root -2.59122 17.8161 -9.51524 129.083 84.0251 127.64
lowerback 13.1081 -0.571706 -4.7066
upperback 1.93447 -1.32882 0.0212854
thorax -5.19871 -0.527864 2.90715
lowerneck -14.3163 -4.04487 -10.9644
upperneck 40.7227 -2.21511 4.16987
head 17.7427 -1.42794 3.6788
rclavicle 1.49089e-015 4.77083e-015
rhumerus -31.7895 -11.0542 -79.3595
rradius 36.6502
rwrist 5.04041
rhand -13.1285 9.76949
rfingers 7.12502
rthumb 12.9693 -19.8074
lclavicle 1.49089e-015 4.77083e-015
lhumerus -25.6547 -1.87579 80.0601
lradius 37.9384
lwrist -0.986202
lhand -21.6205 25.7673
lfingers 7.12502
lthumb 4.77519 55.6935
rfemur -27.9337 -4.3326 16.5213
rtibia 20.4074
rfoot -6.97601 -14.2966
rtoes 0.962088
lfemur 9.91286 1.58038 -30.4658
ltibia 3.28389
lfoot -6.33038 -3.30155
ltoes 1.97133
221
root -2.4942 17.7934 -9.5153 129.254 83.6432 127.706
lowerback 13.1105 -0.580603 -4.95157
upperback 1.94206 -1.37545 -0.00972863
thorax -5.18273 -0.546489 3.02059
lowerneck -14.2429 -4.07737 -11.0348
upperneck 40.6344 -2.28761 4.24639
head 17.6838 -1.45581 3.70911
rclavicle 1.2424e-014 -2.38542e-015
rhumerus -31.8858 -11.2226 -79.3184
rradius 36.4958
rwrist 5.25618
rhand -13.4328 9.62859
rfingers 7.12502
rthumb 12.676 -19.9667
lclavicle 1.2424e-014 -2.38542e-015
lhumerus -25.4614 -2.29254 80.3256
lradius 37.9186
lwrist -1.01462
lhand -21.6205 25.779
lfingers 7.12502
lthumb 4.77521 55.7051
rfemur -28.2255 -4.68339 16.4375
rtibia 20.1978
rfoot -8.08357 -14.7074
rtoes -2.61673
lfemur 11.8156 1.36293 -30.8515
ltibia 1.27222e-014
lfoot -4.81103 -3.39065
ltoes 0.916951
222
root -2.39743 17.7882 -9.51496 130.048 83.4933 128.389
lowerback 13.0904 -0.586438 -4.94052
upperback 1.95011 -1.38189 -0.0498037
thorax -5.16385 -0.550558 2.97255
lowerneck -14.2093 -4.09633 -10.858
upperneck 40.6292 -2.3389 4.15487
head 17.6703 -1.46007 3.62475
rclavicle 1.14301e-014 7.95139e-015
rhumerus -32.01 -11.264 -79.3276
rradius 36.3414
rwrist 5.27908
rhand -13.7356 9.34678
rfingers 7.12502
rthumb 12.384 -20.2664
lclavicle 1.14301e-014 7.95139e-015
lhumerus -25.2663 -2.86387 80.4961
lradius 37.8924
lwrist -0.789294
lhand -22.3206 25.9028
lfingers 7.12502
lthumb 4.09915 55.8431
rfemur -28.5086 -5.21177 16.7513
rtibia 20.2536
rfoot -8.66974 -14.7756
rtoes -4.49055
lfemur 12.0385 1.21608 -30.9047
ltibia 2.06736e-014
lfoot -4.87951 -3.38785
ltoes 0.658347
223
root -2.29747 17.7827 -9.51531 130.1 83.3571 128.369
lowerback 13.1182 -0.599565 -4.96145
upperback 1.95484 -1.40542 -0.0974957
thorax -5.17285 -0.561501 2.93855
lowerneck -14.2777 -4.12139 -10.7715
upperneck 40.7425 -2.36909 4.11658
head 17.7545 -1.46459 3.59214
rclavicle 1.08338e-014 1.70955e-014
rhumerus -32.1343 -10.9292 -79.327
rradius 36.247
rwrist 4.88745
rhand -13.5209 9.34445
rfingers 7.12502
rthumb 12.591 -20.2561
lclavicle 1.08338e-014 1.70955e-014
lhumerus -25.1316 -3.08984 80.5933
lradius 37.8714
lwrist -0.877022
lhand -23.2308 26.0351
lfingers 7.12502
lthumb 3.22024 55.9905
rfemur -28.8044 -6.16083 17.2279
rtibia 20.4573
rfoot -8.39172 -14.5031
rtoes -5.28204
lfemur 12.3117 1.14394 -30.9907
ltibia -2.54444e-014
lfoot -4.96455 -3.47557
ltoes 0.846272
